<svg width="48" height="48" viewBox="0 0 48 48" fill="none" xmlns="http://www.w3.org/2000/svg">
<path d="M14.967 18.0654C14.967 18.482 15.1325 18.8816 15.4271 19.1762C15.7218 19.4708 16.1213 19.6363 16.538 19.6363C16.9546 19.6363 17.3541 19.4708 17.6488 19.1762C17.9434 18.8816 18.1089 18.482 18.1089 18.0654C18.1089 17.6487 17.9434 17.2492 17.6488 16.9546C17.3541 16.66 16.9546 16.4944 16.538 16.4944C16.1213 16.4944 15.7218 16.66 15.4271 16.9546C15.1325 17.2492 14.967 17.6487 14.967 18.0654Z" fill="#BDBDBD"/>
<path d="M21.9929 18.0218C21.9929 18.4385 22.1584 18.838 22.453 19.1326C22.7476 19.4272 23.1472 19.5927 23.5638 19.5927C23.9805 19.5927 24.38 19.4272 24.6746 19.1326C24.9692 18.838 25.1347 18.4385 25.1347 18.0218C25.1347 17.6052 24.9692 17.2056 24.6746 16.911C24.38 16.6164 23.9805 16.4509 23.5638 16.4509C23.1472 16.4509 22.7476 16.6164 22.453 16.911C22.1584 17.2056 21.9929 17.6052 21.9929 18.0218Z" fill="#BDBDBD"/>
<path d="M25.9202 25.0473C25.9202 25.3366 26.0351 25.6141 26.2397 25.8187C26.4443 26.0232 26.7217 26.1382 27.0111 26.1382C27.3004 26.1382 27.5779 26.0232 27.7825 25.8187C27.987 25.6141 28.102 25.3366 28.102 25.0473C28.102 24.7579 27.987 24.4805 27.7825 24.2759C27.5779 24.0713 27.3004 23.9564 27.0111 23.9564C26.7217 23.9564 26.4443 24.0713 26.2397 24.2759C26.0351 24.4805 25.9202 24.7579 25.9202 25.0473Z" fill="#BDBDBD"/>
<path d="M31.4617 25.1345C31.4617 25.4239 31.5766 25.7014 31.7812 25.9059C31.9858 26.1105 32.2633 26.2255 32.5526 26.2255C32.8419 26.2255 33.1194 26.1105 33.324 25.9059C33.5286 25.7014 33.6435 25.4239 33.6435 25.1345C33.6435 24.8452 33.5286 24.5677 33.324 24.3632C33.1194 24.1586 32.8419 24.0436 32.5526 24.0436C32.2633 24.0436 31.9858 24.1586 31.7812 24.3632C31.5766 24.5677 31.4617 24.8452 31.4617 25.1345Z" fill="#BDBDBD"/>
<path d="M24 0C10.7345 0 0 10.7345 0 24C0 37.2655 10.7345 48 24 48C37.2655 48 48 37.2655 48 24C48 10.7345 37.2655 0 24 0ZM19.8982 29.5418C18.6327 29.5418 17.6291 29.28 16.3636 29.0182L12.8291 30.7636L13.8327 27.7527C11.3018 26.0073 9.81818 23.7382 9.81818 20.9455C9.81818 16.1455 14.3564 12.3927 19.8982 12.3927C24.8291 12.3927 29.1927 15.4036 30.0655 19.4618C29.76 19.4182 29.4109 19.4182 29.1055 19.4182C24.3055 19.4182 20.5527 22.9964 20.5527 27.4036C20.5527 28.1455 20.6836 28.8436 20.8582 29.4982C20.5091 29.4982 20.2036 29.5418 19.8982 29.5418ZM34.6473 33.0764L35.3891 35.6073L32.64 34.08C31.6364 34.3418 30.6327 34.6036 29.6291 34.6036C24.8291 34.6036 21.0764 31.3309 21.0764 27.3164C21.0764 23.3018 24.8291 20.0291 29.6291 20.0291C34.1673 20.0291 38.1818 23.3018 38.1818 27.3164C38.1818 29.5418 36.6982 31.5491 34.6473 33.0764Z" fill="white"/>
</svg>
